<mxfile host="app.diagrams.net" agent="Mozilla/5.0 (Windows NT 10.0; Win64; x64) AppleWebKit/537.36 (KHTML, like Gecko) Chrome/141.0.0.0 Safari/537.36" version="28.2.3">
  <diagram name="Page-1" id="gvL0uRvp11lDKOBMTod_">
    <mxGraphModel dx="1613" dy="696" grid="0" gridSize="10" guides="1" tooltips="1" connect="1" arrows="1" fold="1" page="0" pageScale="1" pageWidth="827" pageHeight="1169" math="0" shadow="0">
      <root>
        <mxCell id="0" />
        <mxCell id="1" parent="0" />
        <mxCell id="OC2BYhbiDGDtpIQTY5nb-3" value="" style="edgeStyle=none;curved=1;rounded=0;orthogonalLoop=1;jettySize=auto;html=1;fontSize=14;startSize=8;endSize=8;fontFamily=Comic Sans MS;textShadow=0;sketch=1;curveFitting=1;jiggle=2;" edge="1" parent="1" source="OC2BYhbiDGDtpIQTY5nb-1" target="OC2BYhbiDGDtpIQTY5nb-2">
          <mxGeometry relative="1" as="geometry" />
        </mxCell>
        <mxCell id="OC2BYhbiDGDtpIQTY5nb-1" value="Business Objective &amp;amp; KPI" style="rounded=1;whiteSpace=wrap;html=1;fontStyle=1;fillColor=#f8cecc;strokeColor=#b85450;fontFamily=Comic Sans MS;fontSize=14;textShadow=0;sketch=1;curveFitting=1;jiggle=2;" vertex="1" parent="1">
          <mxGeometry x="-221" y="23" width="136" height="84" as="geometry" />
        </mxCell>
        <mxCell id="OC2BYhbiDGDtpIQTY5nb-5" value="" style="edgeStyle=none;curved=1;rounded=0;orthogonalLoop=1;jettySize=auto;html=1;fontSize=14;startSize=8;endSize=8;fontFamily=Comic Sans MS;textShadow=0;sketch=1;curveFitting=1;jiggle=2;" edge="1" parent="1" source="OC2BYhbiDGDtpIQTY5nb-2" target="OC2BYhbiDGDtpIQTY5nb-4">
          <mxGeometry relative="1" as="geometry" />
        </mxCell>
        <mxCell id="OC2BYhbiDGDtpIQTY5nb-2" value="Decision on Training model or use Pre trained model" style="rounded=1;whiteSpace=wrap;html=1;fontStyle=1;fillColor=#fff2cc;strokeColor=#d6b656;fontFamily=Comic Sans MS;fontSize=14;textShadow=0;sketch=1;curveFitting=1;jiggle=2;" vertex="1" parent="1">
          <mxGeometry x="19" y="20" width="139" height="87" as="geometry" />
        </mxCell>
        <mxCell id="OC2BYhbiDGDtpIQTY5nb-7" value="" style="edgeStyle=none;curved=1;rounded=0;orthogonalLoop=1;jettySize=auto;html=1;fontSize=14;startSize=8;endSize=8;fontFamily=Comic Sans MS;textShadow=0;sketch=1;curveFitting=1;jiggle=2;" edge="1" parent="1" source="OC2BYhbiDGDtpIQTY5nb-4" target="OC2BYhbiDGDtpIQTY5nb-6">
          <mxGeometry relative="1" as="geometry" />
        </mxCell>
        <mxCell id="OC2BYhbiDGDtpIQTY5nb-4" value="&lt;div&gt;Tuning Techniques like Fine Tuning/ RAG/ DPO&amp;nbsp;&lt;/div&gt;" style="rounded=1;whiteSpace=wrap;html=1;fontStyle=1;fillColor=#e1d5e7;strokeColor=#9673a6;fontFamily=Comic Sans MS;fontSize=14;textShadow=0;sketch=1;curveFitting=1;jiggle=2;" vertex="1" parent="1">
          <mxGeometry x="259" y="14" width="142" height="93" as="geometry" />
        </mxCell>
        <mxCell id="OC2BYhbiDGDtpIQTY5nb-9" value="" style="edgeStyle=none;curved=1;rounded=0;orthogonalLoop=1;jettySize=auto;html=1;fontSize=14;startSize=8;endSize=8;fontFamily=Comic Sans MS;textShadow=0;sketch=1;curveFitting=1;jiggle=2;" edge="1" parent="1" source="OC2BYhbiDGDtpIQTY5nb-6" target="OC2BYhbiDGDtpIQTY5nb-8">
          <mxGeometry relative="1" as="geometry" />
        </mxCell>
        <mxCell id="OC2BYhbiDGDtpIQTY5nb-6" value="Evaluate using Key metrics" style="rounded=1;whiteSpace=wrap;html=1;fontStyle=1;fillColor=#d5e8d4;strokeColor=#82b366;fontFamily=Comic Sans MS;fontSize=14;textShadow=0;sketch=1;curveFitting=1;jiggle=2;" vertex="1" parent="1">
          <mxGeometry x="499" y="27" width="146" height="80" as="geometry" />
        </mxCell>
        <mxCell id="OC2BYhbiDGDtpIQTY5nb-11" value="" style="edgeStyle=none;curved=1;rounded=0;orthogonalLoop=1;jettySize=auto;html=1;fontSize=14;startSize=8;endSize=8;fontFamily=Comic Sans MS;textShadow=0;sketch=1;curveFitting=1;jiggle=2;" edge="1" parent="1" source="OC2BYhbiDGDtpIQTY5nb-8" target="OC2BYhbiDGDtpIQTY5nb-10">
          <mxGeometry relative="1" as="geometry" />
        </mxCell>
        <mxCell id="OC2BYhbiDGDtpIQTY5nb-8" value="Optimize till the metrics reaches KPI" style="rounded=1;whiteSpace=wrap;html=1;fontStyle=1;fillColor=#fff2cc;strokeColor=#d6b656;fontFamily=Comic Sans MS;fontSize=14;textShadow=0;sketch=1;curveFitting=1;jiggle=2;" vertex="1" parent="1">
          <mxGeometry x="502" y="187" width="152" height="75" as="geometry" />
        </mxCell>
        <mxCell id="OC2BYhbiDGDtpIQTY5nb-13" value="" style="edgeStyle=none;curved=1;rounded=0;orthogonalLoop=1;jettySize=auto;html=1;fontSize=14;startSize=8;endSize=8;fontFamily=Comic Sans MS;textShadow=0;sketch=1;curveFitting=1;jiggle=2;" edge="1" parent="1" source="OC2BYhbiDGDtpIQTY5nb-10" target="OC2BYhbiDGDtpIQTY5nb-12">
          <mxGeometry relative="1" as="geometry" />
        </mxCell>
        <mxCell id="OC2BYhbiDGDtpIQTY5nb-10" value="Deploy" style="rounded=1;whiteSpace=wrap;html=1;fontStyle=1;fillColor=#f5f5f5;strokeColor=#666666;fontColor=#333333;fontFamily=Comic Sans MS;fontSize=14;textShadow=0;sketch=1;curveFitting=1;jiggle=2;" vertex="1" parent="1">
          <mxGeometry x="262" y="187" width="138" height="80" as="geometry" />
        </mxCell>
        <mxCell id="OC2BYhbiDGDtpIQTY5nb-17" value="" style="edgeStyle=none;curved=1;rounded=0;orthogonalLoop=1;jettySize=auto;html=1;fontSize=12;startSize=8;endSize=8;" edge="1" parent="1" source="OC2BYhbiDGDtpIQTY5nb-12" target="OC2BYhbiDGDtpIQTY5nb-16">
          <mxGeometry relative="1" as="geometry" />
        </mxCell>
        <mxCell id="OC2BYhbiDGDtpIQTY5nb-12" value="Monitor the metrics" style="rounded=1;whiteSpace=wrap;html=1;fontStyle=1;fillColor=#dae8fc;strokeColor=#6c8ebf;fontFamily=Comic Sans MS;fontSize=14;textShadow=0;sketch=1;curveFitting=1;jiggle=2;" vertex="1" parent="1">
          <mxGeometry x="22" y="187" width="145" height="86" as="geometry" />
        </mxCell>
        <mxCell id="OC2BYhbiDGDtpIQTY5nb-16" value="Re-train" style="rounded=1;whiteSpace=wrap;html=1;fontStyle=1;fillColor=#dae8fc;strokeColor=#6c8ebf;fontFamily=Comic Sans MS;fontSize=14;textShadow=0;sketch=1;curveFitting=1;jiggle=2;" vertex="1" parent="1">
          <mxGeometry x="-243" y="187" width="145" height="86" as="geometry" />
        </mxCell>
        <mxCell id="OC2BYhbiDGDtpIQTY5nb-18" style="edgeStyle=none;curved=1;rounded=0;orthogonalLoop=1;jettySize=auto;html=1;exitX=0.5;exitY=1;exitDx=0;exitDy=0;entryX=0.424;entryY=1.001;entryDx=0;entryDy=0;entryPerimeter=0;fontSize=12;startSize=8;endSize=8;" edge="1" parent="1" source="OC2BYhbiDGDtpIQTY5nb-16" target="OC2BYhbiDGDtpIQTY5nb-12">
          <mxGeometry relative="1" as="geometry">
            <Array as="points">
              <mxPoint x="-31" y="396" />
            </Array>
          </mxGeometry>
        </mxCell>
      </root>
    </mxGraphModel>
  </diagram>
</mxfile>
